# Blender 5.0.1
# www.blender.org
o 1
v -0.049000 -0.341000 0.060000
v -0.049000 0.341000 0.060000
v 0.049000 0.341000 0.060000
v 0.049000 -0.341000 0.060000
v -0.049000 -0.341000 -0.060000
v 0.049000 0.341000 -0.060000
v -0.049000 0.341000 -0.060000
v 0.049000 -0.341000 -0.060000
v -0.049000 -0.341000 -0.060000
v -0.052090 -0.344090 -0.059511
v -0.049000 0.341000 -0.060000
v 0.049000 -0.341000 -0.060000
v 0.049000 0.341000 -0.060000
v 0.052090 -0.344090 -0.059511
v 0.052090 0.344090 -0.059511
v 0.054878 -0.346878 -0.058090
v 0.057090 -0.349090 -0.055878
v 0.054878 0.346878 -0.058090
v -0.054878 -0.346878 -0.058090
v -0.054878 0.346878 -0.058090
v -0.057090 -0.349090 -0.055878
v -0.057090 0.349090 -0.055878
v -0.058511 -0.350511 -0.053090
v -0.058511 0.350511 -0.053090
v -0.059000 -0.351000 -0.050000
v 0.058511 -0.350511 -0.053090
v 0.059000 -0.351000 -0.050000
v 0.058511 0.350511 -0.053090
v 0.057090 0.349090 -0.055878
v 0.059000 0.351000 -0.050000
v -0.059000 0.351000 -0.050000
v 0.059000 0.351000 0.050000
v 0.058511 0.350511 0.053090
v 0.059000 -0.351000 0.050000
v -0.059000 0.351000 0.050000
v -0.059000 -0.351000 0.050000
v -0.058511 0.350511 0.053090
v -0.058511 -0.350511 0.053090
v -0.057090 0.349090 0.055878
v -0.057090 -0.349090 0.055878
v -0.054878 0.346878 0.058090
v 0.057090 0.349090 0.055878
v 0.054878 0.346878 0.058090
v 0.057090 -0.349090 0.055878
v 0.058511 -0.350511 0.053090
v 0.054878 -0.346878 0.058090
v -0.054878 -0.346878 0.058090
v 0.052090 -0.344090 0.059511
v 0.049000 -0.341000 0.060000
v 0.052090 0.344090 0.059511
v -0.052090 -0.344090 0.059511
v -0.052090 0.344090 0.059511
v -0.049000 -0.341000 0.060000
v -0.049000 0.341000 0.060000
v 0.049000 0.341000 0.060000
v -0.052090 0.344090 -0.059511
vn -0.0000 -0.0000 1.0000
vn -0.0000 -0.0000 -1.0000
vn 0.1980 -0.1980 -0.9600
vn -0.1980 -0.1980 -0.9600
vn -0.0787 -0.0787 -0.9938
vn 0.0787 -0.0787 -0.9938
vn -0.1980 0.1980 -0.9600
vn -0.0787 0.0787 -0.9938
vn 0.1980 0.1980 -0.9600
vn 0.0787 0.0787 -0.9938
vn 0.3610 0.3610 -0.8599
vn 0.3610 -0.3610 -0.8599
vn -0.3610 -0.3610 -0.8599
vn 0.5226 -0.5226 -0.6736
vn -0.5226 -0.5226 -0.6736
vn 0.5226 0.5226 -0.6736
vn -0.3610 0.3610 -0.8599
vn -0.5226 0.5226 -0.6736
vn -0.6543 -0.6543 -0.3793
vn -0.6543 0.6543 -0.3792
vn 0.6543 -0.6543 -0.3792
vn -0.7032 -0.7032 -0.1049
vn -0.7032 0.7032 -0.1049
vn 0.7032 -0.7032 -0.1049
vn 0.6543 0.6543 -0.3792
vn 0.7032 0.7032 -0.1049
vn -0.7032 0.7032 0.1049
vn 0.7032 0.7032 0.1049
vn 0.7032 -0.7032 0.1049
vn 0.6543 0.6543 0.3792
vn 0.6543 -0.6543 0.3792
vn -0.6543 0.6543 0.3792
vn -0.6543 -0.6543 0.3793
vn -0.7032 -0.7032 0.1049
vn -0.5226 -0.5226 0.6736
vn -0.5226 0.5226 0.6736
vn 0.5226 0.5226 0.6736
vn -0.3610 -0.3610 0.8599
vn -0.3610 0.3610 0.8599
vn 0.3610 0.3610 0.8599
vn 0.5226 -0.5226 0.6736
vn 0.3610 -0.3610 0.8599
vn 0.1980 0.1980 0.9600
vn 0.1980 -0.1980 0.9600
vn -0.1980 -0.1980 0.9600
vn 0.0787 -0.0787 0.9938
vn -0.0787 -0.0787 0.9938
vn 0.0787 0.0787 0.9938
vn -0.1980 0.1980 0.9600
vn -0.0787 0.0787 0.9938
vt 0.000000 0.000000
vt 0.666667 0.000000
vt 0.333333 0.000000
vt 1.000000 0.000000
vt 0.750000 0.090909
vt 1.000000 0.090909
vt 0.750000 0.000000
vt 0.000000 0.090909
vt 0.250000 0.090909
vt 0.250000 0.000000
vt 0.500000 0.090909
vt 0.500000 0.000000
vt 0.500000 0.181818
vt 0.750000 0.181818
vt 1.000000 0.181818
vt 0.750000 0.272727
vt 1.000000 0.272727
vt 0.500000 0.272727
vt 0.000000 0.181818
vt 0.250000 0.181818
vt 0.000000 0.272727
vt 0.250000 0.272727
vt 0.000000 0.363636
vt 0.250000 0.363636
vt 0.750000 0.363636
vt 1.000000 0.363636
vt 0.000000 0.454545
vt 0.250000 0.454545
vt 0.750000 0.454545
vt 1.000000 0.454545
vt 0.500000 0.363636
vt 0.500000 0.454545
vt 0.250000 0.545455
vt 0.500000 0.545455
vt 0.750000 0.545455
vt 0.500000 0.636364
vt 0.750000 0.636364
vt 0.250000 0.636364
vt 0.000000 0.636364
vt 0.000000 0.545455
vt 0.000000 0.727273
vt 0.250000 0.727273
vt 0.500000 0.727273
vt 0.000000 0.818182
vt 0.250000 0.818182
vt 0.500000 0.818182
vt 0.750000 0.727273
vt 0.750000 0.818182
vt 1.000000 0.818182
vt 1.000000 0.727273
vt 1.000000 0.636364
vt 0.500000 0.909091
vt 0.750000 0.909091
vt 1.000000 0.909091
vt 0.750000 1.000000
vt 1.000000 1.000000
vt 0.500000 1.000000
vt 0.000000 0.909091
vt 0.250000 0.909091
vt 0.000000 1.000000
vt 0.250000 1.000000
vt 1.000000 0.545455
s 0
f 1/1/1 3/2/1 2/3/1
f 1/1/1 4/4/1 3/2/1
f 5/1/2 6/2/2 8/4/2
f 5/1/2 7/3/2 6/2/2
s 1
f 14/5/3 10/6/4 9/4/5 12/7/6
f 10/8/4 56/9/7 11/10/8 9/1/5
f 15/11/9 14/5/3 12/7/6 13/12/10
f 18/13/11 16/14/12 14/5/3 15/11/9
f 16/14/12 19/15/13 10/6/4 14/5/3
f 17/16/14 21/17/15 19/15/13 16/14/12
f 29/18/16 17/16/14 16/14/12 18/13/11
f 19/19/13 20/20/17 56/9/7 10/8/4
f 21/21/15 22/22/18 20/20/17 19/19/13
f 23/23/19 24/24/20 22/22/18 21/21/15
f 26/25/21 23/26/19 21/17/15 17/16/14
f 25/27/22 31/28/23 24/24/20 23/23/19
f 27/29/24 25/30/22 23/26/19 26/25/21
f 28/31/25 26/25/21 17/16/14 29/18/16
f 30/32/26 27/29/24 26/25/21 28/31/25
f 31/28/23 30/32/26 28/31/25 24/24/20
f 24/24/20 28/31/25 29/18/16 22/22/18
f 35/33/27 32/34/28 30/32/26 31/28/23
f 32/34/28 34/35/29 27/29/24 30/32/26
f 33/36/30 45/37/31 34/35/29 32/34/28
f 37/38/32 33/36/30 32/34/28 35/33/27
f 38/39/33 37/38/32 35/33/27 36/40/34
f 36/40/34 35/33/27 31/28/23 25/27/22
f 40/41/35 39/42/36 37/38/32 38/39/33
f 39/42/36 42/43/37 33/36/30 37/38/32
f 47/44/38 41/45/39 39/42/36 40/41/35
f 41/45/39 43/46/40 42/43/37 39/42/36
f 42/43/37 44/47/41 45/37/31 33/36/30
f 43/46/40 46/48/42 44/47/41 42/43/37
f 46/48/42 47/49/38 40/50/35 44/47/41
f 44/47/41 40/50/35 38/51/33 45/37/31
f 50/52/43 48/53/44 46/48/42 43/46/40
f 48/53/44 51/54/45 47/49/38 46/48/42
f 49/55/46 53/56/47 51/54/45 48/53/44
f 55/57/48 49/55/46 48/53/44 50/52/43
f 51/58/45 52/59/49 41/45/39 47/44/38
f 53/60/47 54/61/50 52/59/49 51/58/45
f 54/61/50 55/57/48 50/52/43 52/59/49
f 52/59/49 50/52/43 43/46/40 41/45/39
f 45/37/31 38/51/33 36/62/34 34/35/29
f 34/35/29 36/62/34 25/30/22 27/29/24
f 22/22/18 29/18/16 18/13/11 20/20/17
f 20/20/17 18/13/11 15/11/9 56/9/7
f 56/9/7 15/11/9 13/12/10 11/10/8
