# Blender 5.0.1
# www.blender.org
o 4
v 0.186545 -0.026179 0.060000
v -0.273455 -0.069179 0.060000
v 0.113545 -0.026179 0.060000
v 0.186545 -0.114179 0.060000
v -0.273455 -0.114179 0.060000
v 0.015545 -0.114179 0.060000
v 0.113545 -0.114179 0.060000
v 0.015545 -0.338179 0.060000
v 0.113545 -0.338179 0.060000
v 0.113545 0.352821 0.060000
v 0.015545 0.167821 0.060000
v 0.015545 -0.026179 0.060000
v -0.142455 -0.026179 0.060000
v 0.013545 0.167821 0.060000
v 0.071545 0.352821 0.060000
v 0.186545 -0.026179 -0.060000
v 0.189635 -0.023089 -0.059511
v 0.186545 -0.114179 -0.060000
v 0.113545 -0.026179 -0.060000
v 0.116635 -0.023089 -0.059511
v 0.113545 0.352821 -0.060000
v 0.071545 0.352821 -0.060000
v 0.116635 0.355911 -0.059511
v 0.070080 0.355911 -0.059511
v 0.119423 0.358699 -0.058090
v 0.121635 0.360911 -0.055878
v 0.119423 -0.020301 -0.058090
v 0.068758 0.358699 -0.058090
v -0.279333 -0.067082 -0.058090
v 0.067709 0.360911 -0.055878
v -0.281546 -0.066293 -0.055878
v 0.067035 0.362332 -0.053090
v -0.282966 -0.065786 -0.053090
v 0.066803 0.362821 -0.050000
v 0.123055 0.362332 -0.053090
v 0.123545 0.362821 -0.050000
v 0.123055 -0.016668 -0.053090
v 0.121635 -0.018089 -0.055878
v 0.123545 -0.016179 -0.050000
v 0.196055 -0.016668 -0.053090
v 0.194635 -0.018089 -0.055878
v 0.196055 -0.123689 -0.053090
v 0.196545 -0.016179 -0.050000
v 0.196545 -0.124179 -0.050000
v 0.196545 -0.016179 0.050000
v 0.196545 -0.124179 0.050000
v 0.196055 -0.016668 0.053090
v 0.123545 -0.016179 0.050000
v 0.123055 -0.016668 0.053090
v 0.123545 0.362821 0.050000
v 0.066803 0.362821 0.050000
v 0.123055 0.362332 0.053090
v 0.067035 0.362332 0.053090
v 0.121635 0.360911 0.055878
v 0.067709 0.360911 0.055878
v 0.119423 0.358699 0.058090
v 0.121635 -0.018089 0.055878
v 0.119423 -0.020301 0.058090
v 0.194635 -0.018089 0.055878
v 0.194635 -0.122269 0.055878
v 0.192423 -0.020301 0.058090
v 0.192423 -0.120057 0.058090
v 0.189635 -0.023089 0.059511
v 0.189635 -0.117269 0.059511
v 0.186545 -0.026179 0.060000
v 0.116635 -0.023089 0.059511
v 0.116635 0.355911 0.059511
v 0.113545 -0.026179 0.060000
v 0.113545 0.352821 0.060000
v 0.071545 0.352821 0.060000
v -0.273455 -0.069179 0.060000
v 0.070080 0.355911 0.059511
v -0.276546 -0.068076 0.059511
v 0.068758 0.358699 0.058090
v -0.279333 -0.067082 0.058090
v -0.279333 -0.120057 0.058090
v -0.281546 -0.066293 0.055878
v -0.281546 -0.122269 0.055878
v -0.282966 -0.065786 0.053090
v -0.282966 -0.123689 0.053090
v -0.283455 -0.065611 0.050000
v -0.283455 -0.124179 0.050000
v -0.283455 -0.065611 -0.050000
v -0.283455 -0.124179 -0.050000
v 0.005545 -0.124179 -0.050000
v -0.282966 -0.123689 -0.053090
v 0.006034 -0.123689 -0.053090
v -0.281546 -0.122269 -0.055878
v 0.007454 -0.122269 -0.055878
v -0.279333 -0.120057 -0.058090
v 0.009667 -0.120057 -0.058090
v -0.276546 -0.117269 -0.059511
v -0.273455 -0.114179 -0.060000
v -0.276546 -0.068076 -0.059511
v 0.012455 -0.117269 -0.059511
v 0.012455 -0.341269 -0.059511
v 0.015545 -0.114179 -0.060000
v 0.015545 -0.338179 -0.060000
v 0.113545 -0.338179 -0.060000
v 0.113545 -0.114179 -0.060000
v 0.116635 -0.341269 -0.059511
v 0.116635 -0.117269 -0.059511
v 0.119423 -0.344057 -0.058090
v 0.121635 -0.346269 -0.055878
v 0.009667 -0.344057 -0.058090
v 0.119423 -0.120057 -0.058090
v 0.192423 -0.120057 -0.058090
v 0.121635 -0.122269 -0.055878
v 0.194635 -0.122269 -0.055878
v 0.123055 -0.123689 -0.053090
v 0.123545 -0.124179 -0.050000
v 0.123055 -0.347689 -0.053090
v 0.123545 -0.348179 -0.050000
v 0.006034 -0.347689 -0.053090
v 0.007454 -0.346269 -0.055878
v 0.005545 -0.348179 -0.050000
v 0.005545 -0.348179 0.050000
v 0.006034 -0.347689 0.053090
v 0.005545 -0.124179 0.050000
v 0.123545 -0.348179 0.050000
v 0.123545 -0.124179 0.050000
v 0.123055 -0.347689 0.053090
v 0.123055 -0.123689 0.053090
v 0.121635 -0.346269 0.055878
v 0.121635 -0.122269 0.055878
v 0.119423 -0.344057 0.058090
v 0.007454 -0.346269 0.055878
v 0.009667 -0.344057 0.058090
v 0.007454 -0.122269 0.055878
v 0.006034 -0.123689 0.053090
v 0.009667 -0.120057 0.058090
v 0.012455 -0.117269 0.059511
v 0.015545 -0.114179 0.060000
v -0.276546 -0.117269 0.059511
v 0.012455 -0.341269 0.059511
v 0.116635 -0.341269 0.059511
v 0.015545 -0.338179 0.060000
v 0.113545 -0.338179 0.060000
v 0.113545 -0.114179 0.060000
v 0.186545 -0.114179 0.060000
v 0.116635 -0.117269 0.059511
v 0.119423 -0.120057 0.058090
v -0.273455 -0.114179 0.060000
v 0.196055 -0.123689 0.053090
v 0.192423 -0.020301 -0.058090
v 0.189635 -0.117269 -0.059511
v -0.273455 -0.069179 -0.060000
v 0.015545 -0.026179 -0.060000
v 0.012455 -0.023089 -0.059511
v 0.015545 0.167821 -0.060000
v -0.142455 -0.026179 -0.060000
v -0.136005 -0.023089 -0.059511
v 0.013545 0.167821 -0.060000
v 0.015025 0.164731 -0.059511
v 0.012455 0.164731 -0.059511
v 0.016361 0.161943 -0.058090
v 0.017421 0.159731 -0.055878
v -0.130186 -0.020301 -0.058090
v 0.009667 0.161943 -0.058090
v 0.009667 -0.020301 -0.058090
v 0.007454 0.159731 -0.055878
v 0.007454 -0.018089 -0.055878
v 0.006034 0.158311 -0.053090
v 0.006034 -0.016668 -0.053090
v 0.005545 0.157821 -0.050000
v 0.018101 0.158311 -0.053090
v 0.018336 0.157821 -0.050000
v -0.122604 -0.016668 -0.053090
v -0.125568 -0.018089 -0.055878
v -0.121582 -0.016179 -0.050000
v 0.005545 -0.016179 -0.050000
v -0.121582 -0.016179 0.050000
v -0.122604 -0.016668 0.053090
v 0.018336 0.157821 0.050000
v 0.005545 -0.016179 0.050000
v 0.005545 0.157821 0.050000
v 0.006034 -0.016668 0.053090
v 0.006034 0.158311 0.053090
v 0.007454 -0.018089 0.055878
v 0.007454 0.159731 0.055878
v 0.009667 -0.020301 0.058090
v -0.125568 -0.018089 0.055878
v -0.130186 -0.020301 0.058090
v 0.017421 0.159731 0.055878
v 0.018101 0.158311 0.053090
v 0.016361 0.161943 0.058090
v 0.009667 0.161943 0.058090
v 0.015025 0.164731 0.059511
v 0.013545 0.167821 0.060000
v -0.136005 -0.023089 0.059511
v 0.012455 0.164731 0.059511
v 0.012455 -0.023089 0.059511
v 0.015545 0.167821 0.060000
v 0.015545 -0.026179 0.060000
v -0.142455 -0.026179 0.060000
v 0.186545 -0.026179 -0.060000
v -0.273455 -0.069179 -0.060000
v 0.113545 -0.026179 -0.060000
v 0.186545 -0.114179 -0.060000
v -0.273455 -0.114179 -0.060000
v 0.015545 -0.114179 -0.060000
v 0.113545 -0.114179 -0.060000
v 0.015545 -0.338179 -0.060000
v 0.113545 -0.338179 -0.060000
v 0.113545 0.352821 -0.060000
v 0.015545 0.167821 -0.060000
v 0.015545 -0.026179 -0.060000
v -0.142455 -0.026179 -0.060000
v 0.013545 0.167821 -0.060000
v 0.071545 0.352821 -0.060000
vn -0.0000 -0.0000 1.0000
vn 0.1203 0.1203 -0.9854
vn 0.1980 0.1980 -0.9600
vn 0.0787 0.0787 -0.9938
vn 0.1980 -0.1980 -0.9600
vn 0.0787 -0.0787 -0.9938
vn -0.1368 0.2885 -0.9477
vn -0.0607 0.1280 -0.9899
vn -0.2479 0.5229 -0.8156
vn 0.3610 0.3610 -0.8599
vn 0.2882 0.2882 -0.9132
vn 0.5226 0.5226 -0.6736
vn 0.4666 0.4666 -0.7513
vn -0.3415 0.7202 -0.6039
vn -0.7580 0.2704 -0.5936
vn -0.5534 0.1974 -0.8091
vn -0.3037 0.1084 -0.9466
vn -0.8939 0.3189 -0.3149
vn -0.4055 0.8552 -0.3229
vn 0.6543 0.6543 -0.3792
vn -0.9387 0.3349 -0.0818
vn -0.4269 0.9003 -0.0847
vn 0.7032 0.7032 -0.1049
vn 0.6319 0.6319 -0.4487
vn 0.7023 0.7024 -0.1158
vn 0.6543 -0.6543 -0.3792
vn 0.5226 -0.5226 -0.6736
vn 0.7032 -0.7032 -0.1049
vn 0.7032 0.7032 0.1049
vn 0.7032 -0.7032 0.1049
vn 0.7023 0.7024 0.1158
vn 0.6543 0.6543 0.3792
vn 0.6543 -0.6543 0.3792
vn 0.6319 0.6319 0.4487
vn -0.4055 0.8552 0.3229
vn -0.4269 0.9003 0.0847
vn -0.3415 0.7202 0.6039
vn 0.5226 0.5226 0.6736
vn 0.4666 0.4666 0.7513
vn -0.2479 0.5229 0.8156
vn 0.3610 0.3610 0.8599
vn 0.2882 0.2882 0.9132
vn 0.5226 -0.5226 0.6736
vn 0.3610 -0.3610 0.8599
vn 0.1980 0.1980 0.9600
vn 0.1980 -0.1980 0.9600
vn 0.1203 0.1203 0.9854
vn 0.0787 0.0787 0.9938
vn 0.0787 -0.0787 0.9938
vn -0.0607 0.1280 0.9899
vn -0.1368 0.2885 0.9477
vn -0.1390 0.0496 0.9891
vn -0.3037 0.1084 0.9466
vn -0.5534 0.1974 0.8091
vn -0.7580 0.2704 0.5936
vn -0.1980 -0.1980 0.9600
vn -0.3610 -0.3610 0.8599
vn -0.5226 -0.5226 0.6736
vn -0.8939 0.3189 0.3149
vn -0.6543 -0.6543 0.3792
vn -0.9387 0.3349 0.0818
vn -0.7032 -0.7032 0.1049
vn -0.7032 -0.7032 -0.1049
vn -0.6543 -0.6543 -0.3792
vn -0.7023 -0.7024 0.1158
vn -0.7023 -0.7024 -0.1158
vn -0.6319 -0.6319 -0.4487
vn -0.5226 -0.5226 -0.6736
vn -0.4666 -0.4666 -0.7513
vn -0.3610 -0.3610 -0.8599
vn -0.2882 -0.2882 -0.9132
vn -0.1980 -0.1980 -0.9600
vn -0.1203 -0.1203 -0.9854
vn -0.1390 0.0496 -0.9891
vn -0.0787 -0.0787 -0.9938
vn 0.1203 -0.1203 -0.9854
vn 0.2882 -0.2882 -0.9132
vn 0.3610 -0.3610 -0.8599
vn 0.4666 -0.4666 -0.7513
vn 0.6319 -0.6319 -0.4487
vn 0.7023 -0.7024 -0.1158
vn -0.6319 -0.6319 0.4487
vn 0.6319 -0.6319 0.4487
vn 0.7023 -0.7024 0.1158
vn 0.4666 -0.4666 0.7513
vn 0.2882 -0.2882 0.9132
vn -0.4666 -0.4666 0.7513
vn -0.2882 -0.2882 0.9132
vn -0.1203 -0.1203 0.9854
vn -0.0787 -0.0787 0.9938
vn 0.1203 -0.1203 0.9854
vn 0.0808 0.0387 -0.9960
vn -0.1203 0.1203 -0.9854
vn -0.0787 0.0787 -0.9938
vn 0.0616 0.0295 -0.9977
vn -0.5327 0.8287 -0.1719
vn -0.7074 0.7068 0.0001
vn 0.7590 0.6264 -0.1776
vn 0.9022 0.4314 0.0004
vn -0.6565 0.7365 -0.1629
vn 0.8655 0.4745 -0.1608
vn 0.2206 0.1057 -0.9696
vn 0.9089 0.3987 -0.1223
vn 0.4051 0.1941 -0.8934
vn -0.7160 0.6850 -0.1349
vn -0.4666 0.4666 -0.7513
vn -0.2882 0.2882 -0.9132
vn -0.6319 0.6319 -0.4487
vn -0.7567 0.6488 -0.0806
vn 0.9323 0.3554 -0.0667
vn -0.7023 0.7024 -0.1158
vn -0.7409 0.6716 -0.0110
vn 0.9220 0.3871 -0.0086
vn 0.6786 0.3251 -0.6587
vn 0.8845 0.4238 -0.1951
vn 0.9220 0.3871 0.0086
vn 0.8845 0.4238 0.1951
vn -0.7023 0.7024 0.1158
vn 0.6786 0.3251 0.6587
vn -0.6319 0.6319 0.4487
vn 0.9323 0.3554 0.0667
vn -0.7409 0.6716 0.0110
vn -0.7567 0.6488 0.0806
vn -0.4666 0.4666 0.7513
vn -0.7160 0.6850 0.1349
vn 0.4051 0.1941 0.8934
vn -0.2882 0.2882 0.9132
vn -0.6565 0.7365 0.1629
vn 0.2206 0.1057 0.9696
vn 0.9089 0.3987 0.1223
vn 0.8655 0.4744 0.1608
vn -0.5327 0.8287 0.1719
vn 0.7590 0.6264 0.1776
vn 0.0808 0.0387 0.9960
vn 0.9021 0.4315 -0.0004
vn 0.0616 0.0295 0.9977
vn -0.7073 0.7069 -0.0001
vn -0.0787 0.0787 0.9938
vn -0.1203 0.1203 0.9854
vn -0.0000 -0.0000 -1.0000
vt 0.500000 0.000000
vt 0.071429 0.000000
vt 0.000000 0.000000
vt 0.714286 0.000000
vt 0.428571 0.000000
vt 0.357143 0.000000
vt 0.142857 0.000000
vt 0.285714 0.000000
vt 0.214286 0.000000
vt 0.785714 0.000000
vt 0.857143 0.000000
vt 0.642857 0.000000
vt 1.000000 0.000000
vt 0.928571 0.000000
vt 0.571429 0.000000
vt 0.909091 0.090909
vt 1.000000 0.090909
vt 0.909091 0.000000
vt 0.000000 0.090909
vt 0.090909 0.090909
vt 0.090909 0.000000
vt 0.818182 0.090909
vt 0.818182 0.000000
vt 0.727273 0.090909
vt 0.727273 0.000000
vt 0.727273 0.181818
vt 0.818182 0.181818
vt 0.909091 0.181818
vt 0.818182 0.272727
vt 0.909091 0.272727
vt 0.727273 0.272727
vt 0.636364 0.272727
vt 0.636364 0.181818
vt 0.636364 0.090909
vt 0.636364 0.363636
vt 0.727273 0.363636
vt 0.818182 0.363636
vt 0.636364 0.454545
vt 0.727273 0.454545
vt 0.818182 0.454545
vt 0.909091 0.363636
vt 0.909091 0.454545
vt 1.000000 0.363636
vt 1.000000 0.272727
vt 1.000000 0.454545
vt 0.000000 0.363636
vt 0.090909 0.363636
vt 0.090909 0.272727
vt 0.000000 0.272727
vt 0.000000 0.454545
vt 0.090909 0.454545
vt 0.000000 0.545455
vt 0.090909 0.545455
vt 0.909091 0.545455
vt 1.000000 0.545455
vt 0.000000 0.636364
vt 0.090909 0.636364
vt 0.909091 0.636364
vt 1.000000 0.636364
vt 0.818182 0.636364
vt 0.818182 0.545455
vt 0.727273 0.636364
vt 0.727273 0.545455
vt 0.727273 0.727273
vt 0.818182 0.727273
vt 0.909091 0.727273
vt 0.727273 0.818182
vt 0.818182 0.818182
vt 0.909091 0.818182
vt 1.000000 0.727273
vt 1.000000 0.818182
vt 0.000000 0.727273
vt 0.090909 0.727273
vt 0.000000 0.818182
vt 0.090909 0.818182
vt 0.000000 0.909091
vt 0.090909 0.909091
vt 0.909091 0.909091
vt 1.000000 0.909091
vt 0.000000 1.000000
vt 0.090909 1.000000
vt 0.909091 1.000000
vt 1.000000 1.000000
vt 0.818182 1.000000
vt 0.818182 0.909091
vt 0.727273 1.000000
vt 0.727273 0.909091
vt 0.636364 1.000000
vt 0.636364 0.909091
vt 0.636364 0.818182
vt 0.636364 0.727273
vt 0.545455 0.909091
vt 0.545455 0.818182
vt 0.545455 0.727273
vt 0.636364 0.636364
vt 0.545455 0.636364
vt 0.636364 0.545455
vt 0.545455 0.545455
vt 0.545455 0.454545
vt 0.545455 0.363636
vt 0.454545 0.545455
vt 0.454545 0.454545
vt 0.454545 0.363636
vt 0.545455 0.272727
vt 0.454545 0.272727
vt 0.545455 0.181818
vt 0.454545 0.181818
vt 0.545455 0.090909
vt 0.454545 0.090909
vt 0.636364 0.000000
vt 0.545455 0.000000
vt 0.454545 0.000000
vt 0.363636 0.181818
vt 0.363636 0.090909
vt 0.363636 0.000000
vt 0.272727 0.090909
vt 0.272727 0.000000
vt 0.181818 0.090909
vt 0.181818 0.000000
vt 0.181818 0.181818
vt 0.272727 0.181818
vt 0.272727 0.272727
vt 0.363636 0.272727
vt 0.181818 0.272727
vt 0.090909 0.181818
vt 0.181818 0.363636
vt 0.272727 0.363636
vt 0.181818 0.454545
vt 0.272727 0.454545
vt 0.363636 0.363636
vt 0.363636 0.454545
vt 0.272727 0.545455
vt 0.363636 0.545455
vt 0.363636 0.636364
vt 0.454545 0.636364
vt 0.272727 0.636364
vt 0.181818 0.636364
vt 0.181818 0.545455
vt 0.181818 0.727273
vt 0.272727 0.727273
vt 0.363636 0.727273
vt 0.181818 0.818182
vt 0.272727 0.818182
vt 0.363636 0.818182
vt 0.454545 0.727273
vt 0.454545 0.818182
vt 0.363636 0.909091
vt 0.454545 0.909091
vt 0.454545 1.000000
vt 0.545455 1.000000
vt 0.363636 1.000000
vt 0.272727 1.000000
vt 0.272727 0.909091
vt 0.181818 1.000000
vt 0.181818 0.909091
vt 0.000000 0.181818
vt 1.000000 0.181818
vt 0.750000 0.090909
vt 0.750000 0.000000
vt 0.250000 0.090909
vt 0.250000 0.000000
vt 0.500000 0.090909
vt 0.250000 0.181818
vt 0.500000 0.181818
vt 0.750000 0.181818
vt 0.500000 0.272727
vt 0.750000 0.272727
vt 0.250000 0.272727
vt 0.250000 0.363636
vt 0.500000 0.363636
vt 0.250000 0.454545
vt 0.500000 0.454545
vt 0.750000 0.363636
vt 0.750000 0.454545
vt 0.500000 0.545455
vt 0.750000 0.545455
vt 0.750000 0.636364
vt 0.500000 0.636364
vt 0.250000 0.545455
vt 0.250000 0.636364
vt 0.250000 0.727273
vt 0.750000 0.727273
vt 0.250000 0.818182
vt 0.750000 0.818182
vt 0.500000 0.727273
vt 0.500000 0.818182
vt 0.250000 0.909091
vt 0.500000 0.909091
vt 0.750000 0.909091
vt 0.500000 1.000000
vt 0.750000 1.000000
vt 0.250000 1.000000
s 0
f 2/1/1 4/2/1 1/3/1
f 2/1/1 1/3/1 3/4/1
f 5/5/1 4/2/1 2/1/1
f 6/6/1 4/2/1 5/5/1
f 7/7/1 4/2/1 6/6/1
f 8/8/1 9/9/1 7/7/1
f 8/8/1 7/7/1 6/6/1
f 2/1/1 3/4/1 12/10/1
f 11/11/1 3/4/1 10/12/1
f 12/10/1 3/4/1 11/11/1
f 2/1/1 12/10/1 13/13/1
f 2/1/1 13/13/1 14/14/1
f 2/1/1 14/14/1 10/12/1
f 14/14/1 11/11/1 10/12/1
f 2/1/1 10/12/1 15/15/1
s 1
f 20/16/2 17/17/3 16/13/4 19/18/4
f 17/19/3 146/20/5 18/21/6 16/3/4
f 23/22/3 20/16/2 19/18/4 21/23/4
f 24/24/7 23/22/3 21/23/4 22/25/8
f 28/26/9 25/27/10 23/22/3 24/24/7
f 25/27/10 27/28/11 20/16/2 23/22/3
f 26/29/12 38/30/13 27/28/11 25/27/10
f 30/31/14 26/29/12 25/27/10 28/26/9
f 31/32/15 30/31/14 28/26/9 29/33/16
f 29/33/16 28/26/9 24/24/7 94/34/17
f 33/35/18 32/36/19 30/31/14 31/32/15
f 32/36/19 35/37/20 26/29/12 30/31/14
f 83/38/21 34/39/22 32/36/19 33/35/18
f 34/39/22 36/40/23 35/37/20 32/36/19
f 35/37/20 37/41/24 38/30/13 26/29/12
f 36/40/23 39/42/25 37/41/24 35/37/20
f 37/41/24 40/43/20 41/44/12 38/30/13
f 39/42/25 43/45/23 40/43/20 37/41/24
f 40/46/20 42/47/26 109/48/27 41/49/12
f 43/50/23 44/51/28 42/47/26 40/46/20
f 45/52/29 46/53/30 44/51/28 43/50/23
f 48/54/31 45/55/29 43/45/23 39/42/25
f 47/56/32 144/57/33 46/53/30 45/52/29
f 49/58/34 47/59/32 45/55/29 48/54/31
f 52/60/32 49/58/34 48/54/31 50/61/29
f 50/61/29 48/54/31 39/42/25 36/40/23
f 53/62/35 52/60/32 50/61/29 51/63/36
f 51/63/36 50/61/29 36/40/23 34/39/22
f 55/64/37 54/65/38 52/60/32 53/62/35
f 54/65/38 57/66/39 49/58/34 52/60/32
f 74/67/40 56/68/41 54/65/38 55/64/37
f 56/68/41 58/69/42 57/66/39 54/65/38
f 57/66/39 59/70/38 47/59/32 49/58/34
f 58/69/42 61/71/41 59/70/38 57/66/39
f 59/72/38 60/73/43 144/57/33 47/56/32
f 61/74/41 62/75/44 60/73/43 59/72/38
f 63/76/45 64/77/46 62/75/44 61/74/41
f 66/78/47 63/79/45 61/71/41 58/69/42
f 65/80/48 140/81/49 64/77/46 63/76/45
f 68/82/48 65/83/48 63/79/45 66/78/47
f 69/84/48 68/82/48 66/78/47 67/85/45
f 67/85/45 66/78/47 58/69/42 56/68/41
f 70/86/50 69/84/48 67/85/45 72/87/51
f 71/88/52 70/86/50 72/87/51 73/89/53
f 73/89/53 72/87/51 74/67/40 75/90/54
f 72/87/51 67/85/45 56/68/41 74/67/40
f 75/90/54 74/67/40 55/64/37 77/91/55
f 134/92/56 73/89/53 75/90/54 76/93/57
f 76/93/57 75/90/54 77/91/55 78/94/58
f 78/94/58 77/91/55 79/95/59 80/96/60
f 77/91/55 55/64/37 53/62/35 79/95/59
f 80/96/60 79/95/59 81/97/61 82/98/62
f 79/95/59 53/62/35 51/63/36 81/97/61
f 82/98/62 81/97/61 83/38/21 84/99/63
f 81/97/61 51/63/36 34/39/22 83/38/21
f 84/99/63 83/38/21 33/35/18 86/100/64
f 119/101/65 82/98/62 84/99/63 85/102/66
f 85/102/66 84/99/63 86/100/64 87/103/67
f 87/103/67 86/100/64 88/104/68 89/105/69
f 86/100/64 33/35/18 31/32/15 88/104/68
f 89/105/69 88/104/68 90/106/70 91/107/71
f 88/104/68 31/32/15 29/33/16 90/106/70
f 91/107/71 90/106/70 92/108/72 95/109/73
f 90/106/70 29/33/16 94/34/17 92/108/72
f 92/108/72 94/34/17 147/110/74 93/111/75
f 95/109/73 92/108/72 93/111/75 97/112/75
f 105/113/70 91/107/71 95/109/73 96/114/72
f 96/114/72 95/109/73 97/112/75 98/115/75
f 101/116/5 96/114/72 98/115/75 99/117/6
f 102/118/76 101/116/5 99/117/6 100/119/6
f 106/120/77 103/121/78 101/116/5 102/118/76
f 103/121/78 105/113/70 96/114/72 101/116/5
f 104/122/27 115/123/68 105/113/70 103/121/78
f 108/124/79 104/122/27 103/121/78 106/120/77
f 109/48/27 108/124/79 106/120/77 107/125/78
f 107/125/78 106/120/77 102/118/76 146/20/5
f 42/47/26 110/126/80 108/124/79 109/48/27
f 110/126/80 112/127/26 104/122/27 108/124/79
f 44/51/28 111/128/81 110/126/80 42/47/26
f 111/128/81 113/129/28 112/127/26 110/126/80
f 112/127/26 114/130/64 115/123/68 104/122/27
f 113/129/28 116/131/63 114/130/64 112/127/26
f 114/130/64 87/103/67 89/105/69 115/123/68
f 116/131/63 85/102/66 87/103/67 114/130/64
f 120/132/30 117/133/62 116/131/63 113/129/28
f 117/133/62 119/101/65 85/102/66 116/131/63
f 118/134/60 130/135/82 119/101/65 117/133/62
f 122/136/33 118/134/60 117/133/62 120/132/30
f 123/137/83 122/136/33 120/132/30 121/138/84
f 121/138/84 120/132/30 113/129/28 111/128/81
f 125/139/85 124/140/43 122/136/33 123/137/83
f 124/140/43 127/141/58 118/134/60 122/136/33
f 142/142/86 126/143/44 124/140/43 125/139/85
f 126/143/44 128/144/57 127/141/58 124/140/43
f 127/141/58 129/145/87 130/135/82 118/134/60
f 128/144/57 131/146/88 129/145/87 127/141/58
f 129/145/87 78/94/58 80/96/60 130/135/82
f 131/146/88 76/93/57 78/94/58 129/145/87
f 135/147/56 132/148/89 131/146/88 128/144/57
f 132/148/89 134/92/56 76/93/57 131/146/88
f 133/149/90 143/150/90 134/92/56 132/148/89
f 137/151/90 133/149/90 132/148/89 135/147/56
f 138/152/49 137/151/90 135/147/56 136/153/46
f 136/153/46 135/147/56 128/144/57 126/143/44
f 139/154/49 138/152/49 136/153/46 141/155/91
f 140/81/49 139/154/49 141/155/91 64/77/46
f 64/77/46 141/155/91 142/142/86 62/75/44
f 141/155/91 136/153/46 126/143/44 142/142/86
f 62/75/44 142/142/86 125/139/85 60/73/43
f 143/150/90 71/88/52 73/89/53 134/92/56
f 130/135/82 80/96/60 82/98/62 119/101/65
f 60/73/43 125/139/85 123/137/83 144/57/33
f 144/57/33 123/137/83 121/138/84 46/53/30
f 46/53/30 121/138/84 111/128/81 44/51/28
f 115/123/68 89/105/69 91/107/71 105/113/70
f 41/49/12 109/48/27 107/125/78 145/156/10
f 145/156/10 107/125/78 146/20/5 17/19/3
f 146/20/5 102/118/76 100/119/6 18/21/6
f 27/28/11 145/157/10 17/17/3 20/16/2
f 38/30/13 41/44/12 145/157/10 27/28/11
f 94/34/17 24/24/7 22/25/8 147/110/74
f 152/158/92 149/17/93 148/13/94 151/159/95
f 149/19/93 155/160/96 150/161/97 148/3/94
f 154/162/98 152/158/92 151/159/95 153/1/99
f 155/160/96 154/162/98 153/1/99 150/161/97
f 159/163/100 156/164/101 154/162/98 155/160/96
f 156/164/101 158/165/102 152/158/92 154/162/98
f 157/166/103 169/167/104 158/165/102 156/164/101
f 161/168/105 157/166/103 156/164/101 159/163/100
f 162/49/106 161/168/105 159/163/100 160/156/107
f 160/156/107 159/163/100 155/160/96 149/19/93
f 164/46/108 163/169/109 161/168/105 162/49/106
f 163/169/109 166/170/110 157/166/103 161/168/105
f 171/50/111 165/171/112 163/169/109 164/46/108
f 165/171/112 167/172/113 166/170/110 163/169/109
f 166/170/110 168/173/114 169/167/104 157/166/103
f 167/172/113 170/174/115 168/173/114 166/170/110
f 170/174/115 171/45/111 164/43/108 168/173/114
f 168/173/114 164/43/108 162/44/106 169/167/104
f 174/175/116 172/176/117 170/174/115 167/172/113
f 172/176/117 175/55/118 171/45/111 170/174/115
f 173/177/119 177/59/120 175/55/118 172/176/117
f 185/178/121 173/177/119 172/176/117 174/175/116
f 175/52/118 176/179/122 165/171/112 171/50/111
f 177/56/120 178/180/123 176/179/122 175/52/118
f 179/72/124 180/181/125 178/180/123 177/56/120
f 182/182/126 179/70/124 177/59/120 173/177/119
f 181/74/127 187/183/128 180/181/125 179/72/124
f 183/184/129 181/71/127 179/70/124 182/182/126
f 184/185/130 182/182/126 173/177/119 185/178/121
f 186/186/131 183/184/129 182/182/126 184/185/130
f 187/183/128 186/186/131 184/185/130 180/181/125
f 180/181/125 184/185/130 185/178/121 178/180/123
f 191/187/132 188/188/133 186/186/131 187/183/128
f 188/188/133 190/189/134 183/184/129 186/186/131
f 189/190/135 195/191/136 190/189/134 188/188/133
f 193/192/137 189/190/135 188/188/133 191/187/132
f 194/80/138 193/192/137 191/187/132 192/76/139
f 192/76/139 191/187/132 187/183/128 181/74/127
f 195/191/136 194/83/138 192/79/139 190/189/134
f 190/189/134 192/79/139 181/71/127 183/184/129
f 178/180/123 185/178/121 174/175/116 176/179/122
f 176/179/122 174/175/116 167/172/113 165/171/112
f 169/167/104 162/44/106 160/157/107 158/165/102
f 158/165/102 160/157/107 149/17/93 152/158/92
s 0
f 197/1/140 196/3/140 199/2/140
f 197/1/140 198/4/140 196/3/140
f 200/5/140 197/1/140 199/2/140
f 201/6/1 200/5/1 199/2/1
f 202/7/1 201/6/1 199/2/1
f 203/8/140 202/7/140 204/9/140
f 203/8/140 201/6/140 202/7/140
f 197/1/140 207/10/140 198/4/140
f 206/11/140 205/12/140 198/4/140
f 207/10/140 206/11/140 198/4/140
f 197/1/140 208/13/140 207/10/140
f 197/1/140 209/14/140 208/13/140
f 197/1/140 205/12/140 209/14/140
f 209/14/140 205/12/140 206/11/140
f 197/1/140 210/15/140 205/12/140
