# Blender 5.0.1
# www.blender.org
o 7
v -0.168039 -0.401763 -0.060000
v -0.172131 -0.403348 -0.059511
v 0.081961 0.158237 -0.060000
v -0.081038 -0.439763 -0.060000
v 0.227962 0.251237 -0.060000
v -0.079468 -0.443821 -0.059511
v 0.232728 0.254327 -0.059511
v -0.078052 -0.447482 -0.058090
v -0.076927 -0.450387 -0.055878
v 0.237029 0.257114 -0.058090
v -0.175822 -0.404778 -0.058090
v 0.072900 0.152359 -0.058090
v -0.178751 -0.405913 -0.055878
v 0.069490 0.150146 -0.055878
v -0.180632 -0.406641 -0.053090
v 0.067300 0.148726 -0.053090
v -0.181280 -0.406892 -0.050000
v -0.076205 -0.452253 -0.053090
v -0.075956 -0.452895 -0.050000
v 0.242632 0.260747 -0.053090
v -0.222549 0.260747 -0.053090
v 0.240441 0.259327 -0.055878
v 0.243388 0.261237 -0.050000
v -0.223039 0.261237 -0.050000
v 0.243388 0.261237 0.050000
v 0.242632 0.260747 0.053090
v -0.075956 -0.452895 0.050000
v -0.223039 0.261237 0.050000
v -0.223039 0.148237 0.050000
v -0.222549 0.260747 0.053090
v -0.222549 0.148726 0.053090
v -0.221129 0.259327 0.055878
v -0.221129 0.150146 0.055878
v -0.218917 0.257114 0.058090
v 0.240441 0.259327 0.055878
v 0.237029 0.257114 0.058090
v -0.076927 -0.450387 0.055878
v -0.178751 -0.405913 0.055878
v -0.076205 -0.452253 0.053090
v -0.078052 -0.447482 0.058090
v -0.175822 -0.404778 0.058090
v -0.079468 -0.443821 0.059511
v -0.081038 -0.439763 0.060000
v 0.232728 0.254327 0.059511
v -0.172131 -0.403348 0.059511
v 0.077198 0.155147 0.059511
v -0.168039 -0.401763 0.060000
v 0.081961 0.158237 0.060000
v -0.213039 0.158237 0.060000
v -0.216129 0.155147 0.059511
v -0.213039 0.251237 0.060000
v -0.216129 0.254327 0.059511
v 0.227962 0.251237 0.060000
v -0.218917 0.152359 0.058090
v 0.072900 0.152359 0.058090
v 0.069490 0.150146 0.055878
v 0.067300 0.148726 0.053090
v -0.180632 -0.406641 0.053090
v 0.066545 0.148237 0.050000
v -0.181280 -0.406892 0.050000
v 0.066545 0.148237 -0.050000
v -0.223039 0.148237 -0.050000
v -0.222549 0.148726 -0.053090
v -0.221129 0.150146 -0.055878
v -0.218917 0.152359 -0.058090
v -0.221129 0.259327 -0.055878
v -0.218917 0.257114 -0.058090
v -0.216129 0.254327 -0.059511
v -0.216129 0.155147 -0.059511
v -0.213039 0.251237 -0.060000
v -0.213039 0.158237 -0.060000
v 0.077198 0.155147 -0.059511
v -0.168039 -0.401763 0.060000
v 0.081961 0.158237 0.060000
v -0.081038 -0.439763 0.060000
v 0.227962 0.251237 0.060000
v -0.213039 0.251237 0.060000
v -0.213039 0.158237 0.060000
v -0.168039 -0.401763 -0.060000
v -0.081038 -0.439763 -0.060000
v 0.081961 0.158237 -0.060000
v -0.213039 0.158237 -0.060000
v 0.227962 0.251237 -0.060000
v -0.213039 0.251237 -0.060000
vn 0.1014 -0.2619 -0.9598
vn -0.2604 -0.1009 -0.9602
vn -0.1034 -0.0400 -0.9938
vn 0.0403 -0.1042 -0.9937
vn -0.1007 -0.0653 -0.9928
vn -0.0720 -0.0467 -0.9963
vn 0.1944 0.1260 -0.9728
vn 0.0720 0.0467 -0.9963
vn 0.3617 0.2345 -0.9023
vn 0.1847 -0.4773 -0.8591
vn -0.4749 -0.1840 -0.8606
vn 0.2671 -0.6903 -0.6724
vn -0.6882 -0.2666 -0.6748
vn 0.5565 0.3608 -0.7484
vn -0.2615 -0.1696 -0.9502
vn -0.4579 -0.2970 -0.8379
vn -0.8624 -0.3341 -0.3803
vn -0.6952 -0.4509 -0.5598
vn 0.3341 -0.8633 -0.3782
vn -0.9273 -0.3592 -0.1053
vn -0.8291 -0.5378 -0.1530
vn 0.3589 -0.9275 -0.1045
vn 0.7504 0.4865 -0.4474
vn 0.8318 0.5392 -0.1317
vn -0.7032 0.7032 -0.1049
vn -0.6543 0.6543 -0.3793
vn -0.5226 0.5226 -0.6736
vn -0.7032 0.7032 0.1049
vn 0.8318 0.5392 0.1317
vn 0.3589 -0.9275 0.1045
vn 0.7504 0.4865 0.4474
vn 0.3341 -0.8633 0.3782
vn -0.6543 0.6543 0.3793
vn -0.6543 -0.6543 0.3793
vn -0.7032 -0.7032 0.1049
vn -0.7032 -0.7032 -0.1049
vn -0.5226 -0.5226 0.6736
vn -0.5226 0.5226 0.6736
vn 0.5565 0.3608 0.7484
vn -0.3610 -0.3610 0.8599
vn -0.3610 0.3610 0.8599
vn 0.3617 0.2345 0.9023
vn 0.2671 -0.6903 0.6724
vn 0.1847 -0.4773 0.8591
vn -0.4749 -0.1840 0.8606
vn -0.6882 -0.2666 0.6748
vn -0.8624 -0.3341 0.3803
vn 0.1944 0.1260 0.9728
vn 0.1014 -0.2619 0.9598
vn -0.2604 -0.1009 0.9602
vn 0.0403 -0.1042 0.9937
vn -0.1034 -0.0400 0.9938
vn 0.0720 0.0467 0.9963
vn -0.1007 -0.0653 0.9928
vn -0.2615 -0.1696 0.9502
vn -0.0720 -0.0467 0.9963
vn -0.0787 -0.0787 0.9938
vn -0.1980 -0.1980 0.9600
vn -0.0787 0.0787 0.9938
vn -0.1980 0.1980 0.9600
vn -0.4579 -0.2970 0.8379
vn -0.6952 -0.4509 0.5598
vn -0.8291 -0.5378 0.1530
vn -0.9273 -0.3592 0.1053
vn -0.6543 -0.6543 -0.3793
vn -0.5226 -0.5226 -0.6736
vn -0.3610 -0.3610 -0.8599
vn -0.3610 0.3610 -0.8599
vn -0.1980 0.1980 -0.9600
vn -0.1980 -0.1980 -0.9600
vn -0.0787 0.0787 -0.9938
vn -0.0787 -0.0787 -0.9938
vn -0.0000 -0.0000 1.0000
vn -0.0000 -0.0000 -1.0000
vt 0.833333 0.090909
vt 1.000000 0.090909
vt 1.000000 0.000000
vt 0.833333 0.000000
vt 0.000000 0.090909
vt 0.166667 0.090909
vt 0.166667 0.000000
vt 0.000000 0.000000
vt 0.666667 0.090909
vt 0.666667 0.000000
vt 0.666667 0.181818
vt 0.833333 0.181818
vt 1.000000 0.181818
vt 0.833333 0.272727
vt 1.000000 0.272727
vt 0.666667 0.272727
vt 0.000000 0.181818
vt 0.166667 0.181818
vt 0.000000 0.272727
vt 0.166667 0.272727
vt 0.000000 0.363636
vt 0.166667 0.363636
vt 0.833333 0.363636
vt 1.000000 0.363636
vt 0.000000 0.454545
vt 0.166667 0.454545
vt 0.833333 0.454545
vt 1.000000 0.454545
vt 0.666667 0.363636
vt 0.666667 0.454545
vt 0.500000 0.454545
vt 0.500000 0.363636
vt 0.500000 0.272727
vt 0.500000 0.545455
vt 0.666667 0.545455
vt 0.833333 0.545455
vt 0.666667 0.636364
vt 0.833333 0.636364
vt 0.500000 0.636364
vt 0.333333 0.636364
vt 0.333333 0.545455
vt 0.333333 0.454545
vt 0.333333 0.727273
vt 0.500000 0.727273
vt 0.666667 0.727273
vt 0.333333 0.818182
vt 0.500000 0.818182
vt 0.666667 0.818182
vt 0.833333 0.727273
vt 0.833333 0.818182
vt 1.000000 0.818182
vt 1.000000 0.727273
vt 1.000000 0.636364
vt 0.666667 0.909091
vt 0.833333 0.909091
vt 1.000000 0.909091
vt 0.833333 1.000000
vt 1.000000 1.000000
vt 0.666667 1.000000
vt 0.000000 0.909091
vt 0.166667 0.909091
vt 0.166667 0.818182
vt 0.000000 0.818182
vt 0.000000 1.000000
vt 0.166667 1.000000
vt 0.333333 1.000000
vt 0.333333 0.909091
vt 0.500000 1.000000
vt 0.500000 0.909091
vt 0.166667 0.727273
vt 0.000000 0.727273
vt 0.166667 0.636364
vt 0.000000 0.636364
vt 0.166667 0.545455
vt 0.000000 0.545455
vt 0.333333 0.363636
vt 0.333333 0.272727
vt 0.333333 0.181818
vt 0.500000 0.181818
vt 0.500000 0.090909
vt 0.333333 0.090909
vt 0.500000 0.000000
vt 0.333333 0.000000
vt 1.000000 0.545455
vt 0.200000 0.000000
vt 0.800000 0.000000
vt 0.400000 0.000000
vt 0.600000 0.000000
s 1
f 6/1/1 2/2/2 1/3/3 4/4/4
f 2/5/2 72/6/5 3/7/6 1/8/3
f 7/9/7 6/1/1 4/4/4 5/10/8
f 10/11/9 8/12/10 6/1/1 7/9/7
f 8/12/10 11/13/11 2/2/2 6/1/1
f 9/14/12 13/15/13 11/13/11 8/12/10
f 22/16/14 9/14/12 8/12/10 10/11/9
f 11/17/11 12/18/15 72/6/5 2/5/2
f 13/19/13 14/20/16 12/18/15 11/17/11
f 15/21/17 16/22/18 14/20/16 13/19/13
f 18/23/19 15/24/17 13/15/13 9/14/12
f 17/25/20 61/26/21 16/22/18 15/21/17
f 19/27/22 17/28/20 15/24/17 18/23/19
f 20/29/23 18/23/19 9/14/12 22/16/14
f 23/30/24 19/27/22 18/23/19 20/29/23
f 24/31/25 23/30/24 20/29/23 21/32/26
f 21/32/26 20/29/23 22/16/14 66/33/27
f 28/34/28 25/35/29 23/30/24 24/31/25
f 25/35/29 27/36/30 19/27/22 23/30/24
f 26/37/31 39/38/32 27/36/30 25/35/29
f 30/39/33 26/37/31 25/35/29 28/34/28
f 31/40/34 30/39/33 28/34/28 29/41/35
f 29/41/35 28/34/28 24/31/25 62/42/36
f 33/43/37 32/44/38 30/39/33 31/40/34
f 32/44/38 35/45/39 26/37/31 30/39/33
f 54/46/40 34/47/41 32/44/38 33/43/37
f 34/47/41 36/48/42 35/45/39 32/44/38
f 35/45/39 37/49/43 39/38/32 26/37/31
f 36/48/42 40/50/44 37/49/43 35/45/39
f 40/50/44 41/51/45 38/52/46 37/49/43
f 37/49/43 38/52/46 58/53/47 39/38/32
f 44/54/48 42/55/49 40/50/44 36/48/42
f 42/55/49 45/56/50 41/51/45 40/50/44
f 43/57/51 47/58/52 45/56/50 42/55/49
f 53/59/53 43/57/51 42/55/49 44/54/48
f 45/60/50 46/61/54 55/62/55 41/63/45
f 47/64/52 48/65/56 46/61/54 45/60/50
f 48/65/56 49/66/57 50/67/58 46/61/54
f 49/66/57 51/68/59 52/69/60 50/67/58
f 51/68/59 53/59/53 44/54/48 52/69/60
f 52/69/60 44/54/48 36/48/42 34/47/41
f 50/67/58 52/69/60 34/47/41 54/46/40
f 46/61/54 50/67/58 54/46/40 55/62/55
f 55/62/55 54/46/40 33/43/37 56/70/61
f 41/63/45 55/62/55 56/70/61 38/71/46
f 38/71/46 56/70/61 57/72/62 58/73/47
f 56/70/61 33/43/37 31/40/34 57/72/62
f 58/73/47 57/72/62 59/74/63 60/75/64
f 57/72/62 31/40/34 29/41/35 59/74/63
f 60/75/64 59/74/63 61/26/21 17/25/20
f 59/74/63 29/41/35 62/42/36 61/26/21
f 61/26/21 62/42/36 63/76/65 16/22/18
f 62/42/36 24/31/25 21/32/26 63/76/65
f 16/22/18 63/76/65 64/77/66 14/20/16
f 63/76/65 21/32/26 66/33/27 64/77/66
f 14/20/16 64/77/66 65/78/67 12/18/15
f 64/77/66 66/33/27 67/79/68 65/78/67
f 66/33/27 22/16/14 10/11/9 67/79/68
f 67/79/68 10/11/9 7/9/7 68/80/69
f 65/78/67 67/79/68 68/80/69 69/81/70
f 69/81/70 68/80/69 70/82/71 71/83/72
f 68/80/69 7/9/7 5/10/8 70/82/71
f 72/6/5 69/81/70 71/83/72 3/7/6
f 12/18/15 65/78/67 69/81/70 72/6/5
f 39/38/32 58/53/47 60/84/64 27/36/30
f 27/36/30 60/84/64 17/28/20 19/27/22
s 0
f 73/8/73 75/3/73 74/85/73
f 74/85/73 75/3/73 76/86/73
f 78/87/73 76/86/73 77/88/73
f 78/87/73 74/85/73 76/86/73
f 79/8/74 81/85/74 80/3/74
f 82/87/74 83/86/74 81/85/74
f 81/85/74 83/86/74 80/3/74
f 82/87/74 84/88/74 83/86/74
